<?xml version="1.0" encoding="utf-8"?>
<!-- Generator: Adobe Illustrator 16.0.0, SVG Export Plug-In . SVG Version: 6.00 Build 0)  -->
<!DOCTYPE svg PUBLIC "-//W3C//DTD SVG 1.1//EN" "http://www.w3.org/Graphics/SVG/1.1/DTD/svg11.dtd" [
	<!ENTITY ns_extend "http://ns.adobe.com/Extensibility/1.0/">
	<!ENTITY ns_ai "http://ns.adobe.com/AdobeIllustrator/10.0/">
	<!ENTITY ns_graphs "http://ns.adobe.com/Graphs/1.0/">
	<!ENTITY ns_vars "http://ns.adobe.com/Variables/1.0/">
	<!ENTITY ns_imrep "http://ns.adobe.com/ImageReplacement/1.0/">
	<!ENTITY ns_sfw "http://ns.adobe.com/SaveForWeb/1.0/">
	<!ENTITY ns_custom "http://ns.adobe.com/GenericCustomNamespace/1.0/">
	<!ENTITY ns_adobe_xpath "http://ns.adobe.com/XPath/1.0/">
]>
<svg version="1.1" id="Layer_1" xmlns:x="&ns_extend;" xmlns:i="&ns_ai;" xmlns:graph="&ns_graphs;"
	 xmlns="http://www.w3.org/2000/svg" xmlns:xlink="http://www.w3.org/1999/xlink" x="0px" y="0px" width="1280px" height="900px"
	 viewBox="0 0 1280 900" enable-background="new 0 0 1280 900" xml:space="preserve">
<metadata>
	<sfw  xmlns="&ns_sfw;">
		<slices></slices>
		<sliceSourceBounds  height="1295.304" width="3423.587" bottomLeftOrigin="true" y="-907.24" x="-2082.423"></sliceSourceBounds>
	</sfw>
</metadata>
<pattern  width="43.384" height="44" patternUnits="userSpaceOnUse" id="New_Pattern_Swatch_2" viewBox="0 -44 43.384 44" overflow="visible">
	<g>
		<polygon fill="none" points="0,-44 43.384,-44 43.384,0 0,0 		"/>
		<path fill="#FFFFFF" d="M6.167-33c0-2.854,2.312-5.166,5.166-5.166s5.166,2.312,5.166,5.166s-2.312,5.166-5.166,5.166
			S6.167-30.146,6.167-33z"/>
		<path fill="#FFFFFF" d="M26.667-11.916c0-2.854,2.312-5.167,5.166-5.167s5.166,2.313,5.166,5.167S34.687-6.75,31.833-6.75
			S26.667-9.062,26.667-11.916z"/>
		<polygon fill="none" points="43.384,0 0,0 0,-44 43.384,-44 		"/>
	</g>
</pattern>
<rect fill="#62B7E1" width="1280" height="900"/>
<rect x="0.88" fill="url(#New_Pattern_Swatch_2)" width="1279.12" height="900"/>
<g id="_x32_DJmfK_1_">
	
		<image overflow="visible" width="282" height="199" id="_x32_DJmfK_3_" xlink:href="B4573C854616BD9C.jpg"  transform="matrix(1 0 0 1 1059.1641 -328.6113)">
	</image>
</g>
<g opacity="0.95">
	
		<image overflow="visible" opacity="0.45" width="288" height="3801" xlink:href="B4573C854616BD9C.png"  transform="matrix(0.24 0 0 0.24 128.187 -5.0005)">
	</image>
	<g>
		<rect x="134.187" y="0" fill="#ED6A9E" width="57" height="900"/>
	</g>
</g>
<g>
	<g>
		
			<image overflow="visible" opacity="0.45" width="765" height="1093" xlink:href="B4573C854616BD9B.png"  transform="matrix(0.24 0 0 0.24 112.147 239.791)">
		</image>
		<g>
			<path fill="#F4F4F4" d="M209.222,244.791l-74.076,16.993l-17,46.65l42.781,186.488l128.658-29.515l-43.303-188.763
				L209.222,244.791z M180.952,287.035c-3.947,0.905-7.881-1.561-8.787-5.507c-0.906-3.948,1.56-7.883,5.507-8.788
				c3.947-0.906,7.881,1.561,8.787,5.509C187.365,282.195,184.899,286.129,180.952,287.035z"/>
		</g>
	</g>
	<circle fill="none" stroke="#000000" stroke-miterlimit="10" cx="200.55" cy="372.463" r="44"/>
	<circle fill="none" stroke="#000000" stroke-miterlimit="10" cx="200.55" cy="372.463" r="40"/>
	<g>
		<path fill="#62B6E1" d="M155.858,257.033l7.546,32.896l0.027-0.006c1.103,3.52,9.378,4.646,18.756,2.495
			c9.376-2.151,16.333-6.772,15.792-10.42l0.026-0.006l-7.546-32.896L155.858,257.033z M180.952,287.035
			c-3.947,0.905-7.881-1.561-8.787-5.508c-0.905-3.947,1.561-7.882,5.508-8.787c3.947-0.906,7.881,1.561,8.787,5.508
			C187.365,282.195,184.899,286.129,180.952,287.035z"/>
		<text transform="matrix(0.9747 -0.2236 0.2236 0.9747 174.5977 476.8594)" font-family="'Courier'" font-size="8">blog.legomushroom.com</text>
		<polygon fill="none" stroke="#000000" stroke-miterlimit="10" points="209.743,357.849 208.381,351.909 202.428,353.274 
			201.065,347.333 189.158,350.064 190.521,356.006 184.543,357.377 185.906,363.318 180.04,364.664 181.402,370.605 
			216.973,362.445 215.609,356.503 		"/>
		
			<rect x="195.138" y="372.397" transform="matrix(0.9747 -0.2236 0.2236 0.9747 -78.8541 54.4919)" fill="none" stroke="#000000" stroke-miterlimit="10" width="12.113" height="6.095"/>
		
			<rect x="193.775" y="366.456" transform="matrix(0.9747 -0.2236 0.2236 0.9747 -77.5603 54.0368)" fill="none" stroke="#000000" stroke-miterlimit="10" width="12.113" height="6.095"/>
		<polygon fill="none" stroke="#000000" stroke-miterlimit="10" points="195.973,379.769 197.335,385.709 198.698,391.65 
			200.06,397.587 211.867,394.878 210.505,388.942 209.142,383 207.779,377.06 		"/>
		
			<rect x="201.318" y="359.16" transform="matrix(0.9747 -0.2236 0.2236 0.9747 -75.8165 54.8696)" fill="none" stroke="#000000" stroke-miterlimit="10" width="6.108" height="6.096"/>
		
			<rect x="191.126" y="355.246" transform="matrix(0.9747 -0.2236 0.2236 0.9747 -75.1937 52.4865)" fill="none" stroke="#000000" stroke-miterlimit="10" width="6.108" height="6.095"/>
	</g>
</g>
<g id="EqsMbJ_1_">
	
		<image overflow="visible" width="382" height="400" id="EqsMbJ_2_" xlink:href="B4573C854616BDA4.jpg"  transform="matrix(0.8975 0 0 0.8975 -1382.043 129.1538)">
	</image>
</g>
<g>
	<g>
		
			<rect x="-1962.365" y="325.504" transform="matrix(-0.532 0.8467 -0.8467 -0.532 -2568.3142 2350.8074)" fill="#ED6A9E" width="57.11" height="280.275"/>
		
			<linearGradient id="SVGID_1_" gradientUnits="userSpaceOnUse" x1="-2110.9893" y1="313.7461" x2="-1913.1289" y2="313.7461" gradientTransform="matrix(-0.3617 -1.07 1.1278 -0.1187 -3015.4146 -1650.0176)">
			<stop  offset="0" style="stop-color:#000000;stop-opacity:0.8"/>
			<stop  offset="1" style="stop-color:#000000;stop-opacity:0.2907"/>
		</linearGradient>
		<polygon opacity="0.2" fill="url(#SVGID_1_)" points="-2067.663,415.269 -2037.28,366.911 -1799.958,516.016 -1830.34,564.374 		
			"/>
	</g>
	<polygon fill="#ED6A9E" points="-2067.663,415.269 -2078.423,341.524 -2040.882,298.487 -2037.28,366.911 	"/>
	<linearGradient id="SVGID_2_" gradientUnits="userSpaceOnUse" x1="-2078.4229" y1="356.8779" x2="-2037.2803" y2="356.8779">
		<stop  offset="0" style="stop-color:#000000;stop-opacity:0.8"/>
		<stop  offset="1" style="stop-color:#000000;stop-opacity:0.2907"/>
	</linearGradient>
	<polygon opacity="0.2" fill="url(#SVGID_2_)" points="-2067.663,415.269 -2078.423,341.524 -2040.882,298.487 -2037.28,366.911 	
		"/>
	<g>
		<polygon fill="#ED6A9E" points="-1536.184,293.428 -1540.192,364.362 -1580.947,324.355 -1580.26,257.114 		"/>
		<linearGradient id="SVGID_3_" gradientUnits="userSpaceOnUse" x1="-1573.501" y1="324.7065" x2="-1529.6455" y2="278.5624">
			<stop  offset="0" style="stop-color:#000000;stop-opacity:0.8"/>
			<stop  offset="1" style="stop-color:#000000;stop-opacity:0.2907"/>
		</linearGradient>
		<polygon opacity="0.2" fill="url(#SVGID_3_)" points="-1536.184,293.428 -1540.192,364.362 -1580.947,324.355 -1580.26,257.114 		
			"/>
	</g>
	<g>
		
			<rect x="-1687.295" y="304.227" transform="matrix(-0.7136 -0.7005 0.7005 -0.7136 -3153.7434 -400.5269)" fill="#ED6A9E" width="57.11" height="280.275"/>
		
			<linearGradient id="SVGID_4_" gradientUnits="userSpaceOnUse" x1="-1738.6709" y1="423.9238" x2="-1540.814" y2="423.9238" gradientTransform="matrix(1.1226 -0.1248 -0.1248 1.1272 234.9404 -238.1221)">
			<stop  offset="0" style="stop-color:#000000;stop-opacity:0.8"/>
			<stop  offset="1" style="stop-color:#000000;stop-opacity:0.2907"/>
		</linearGradient>
		<polygon opacity="0.2" fill="url(#SVGID_4_)" points="-1580.947,324.355 -1540.192,364.362 -1736.532,564.374 -1777.288,524.366 
					"/>
	</g>
	<g>
		
			<image overflow="visible" opacity="0.5" width="1504" height="1743" xlink:href="B4573C854616BDA4.png"  transform="matrix(0.24 0 0 0.24 -1888.9502 253.1138)">
		</image>
		<g>
			
				<rect x="-1739.121" y="220.599" transform="matrix(-0.7718 -0.6359 0.6359 -0.7718 -3323.3892 -272.3488)" fill="#ED6A9E" width="57.109" height="479.177"/>
		</g>
	</g>
	<g>
		
			<image overflow="visible" opacity="0.5" width="1783" height="1604" xlink:href="B4573C854616BDA5.png"  transform="matrix(0.24 0 0 0.24 -2082.4229 294.4873)">
		</image>
		<g>
			
				<rect x="-1899.129" y="234.031" transform="matrix(-0.6573 0.7536 -0.7536 -0.6573 -2734.7559 2213.3389)" fill="#ED6A9E" width="57.11" height="501.801"/>
		</g>
	</g>
</g>
<rect x="714.414" y="-377.995" transform="matrix(-0.6641 0.7477 -0.7477 -0.6641 1035.2297 -1003.1355)" fill="#ED6A9E" width="57.109" height="217.982"/>
<linearGradient id="SVGID_5_" gradientUnits="userSpaceOnUse" x1="2293.3096" y1="-485.8369" x2="2491.168" y2="-485.8369" gradientTransform="matrix(-0.0352 -0.9857 0.9838 -0.0631 1340.1426 2033.0381)">
	<stop  offset="0" style="stop-color:#000000;stop-opacity:0.8"/>
	<stop  offset="1" style="stop-color:#000000;stop-opacity:0.2907"/>
</linearGradient>
<polygon opacity="0.2" fill="url(#SVGID_5_)" points="677.518,-345.366 715.442,-388.064 878.42,-243.308 840.494,-200.609 "/>
<rect x="954.872" y="-232.58" transform="matrix(-0.4544 0.8908 -0.8908 -0.4544 1261.5784 -1132.771)" fill="#ED6A9E" width="45.617" height="105.061"/>
<g opacity="0.95">
	
		<image overflow="visible" opacity="0.45" width="5384" height="288" xlink:href="B4573C854616BDAB.png"  transform="matrix(0.24 0 0 0.24 -5.5605 168.2246)">
	</image>
	<g>
		<rect x="0.44" y="173.225" fill="#ED6A9E" width="1280" height="57"/>
	</g>
</g>
<g opacity="0.95">
	<g>
		
			<image overflow="visible" opacity="0.45" width="585" height="468" xlink:href="B4573C854616BDAC.png"  transform="matrix(0.24 0 0 0.24 165.4912 170.2266)">
		</image>
		<g>
			<polygon fill="#ED6A9E" points="195.395,175.227 171.491,220.887 249.473,261.665 275.866,275.442 261.433,238.855 
				299.701,229.777 273.365,216.028 273.378,216.001 			"/>
		</g>
	</g>
	<g>
		
			<image overflow="visible" opacity="0.45" width="568" height="531" xlink:href="B4573C854616BDAF.png"  transform="matrix(0.24 0 0 0.24 33.8022 172.6255)">
		</image>
		<g>
			<polygon fill="#ED6A9E" points="164.101,217.324 131.232,177.625 62.907,234.249 39.802,253.421 79.317,254.099 72.7,293.061 
				95.756,273.927 95.773,273.949 			"/>
		</g>
	</g>
	<g>
		
			<image overflow="visible" opacity="0.45" width="519" height="279" xlink:href="109BBF43214967EB.png"  transform="matrix(0.24 0 0 0.24 47.2554 174.3633)">
		</image>
		<g>
			<polygon fill="#ED6A9E" points="53.255,182.761 54.836,234.274 165.683,230.876 164.107,179.363 			"/>
		</g>
	</g>
	<polygon fill="#D66190" points="41.383,213.613 54.836,234.274 54.512,182.23 48.876,162.623 	"/>
	<g>
		
			<image overflow="visible" opacity="0.45" width="603" height="340" xlink:href="109BBF43214967E9.png"  transform="matrix(0.24 0 0 0.24 35.3833 157.623)">
		</image>
		<g>
			
				<rect x="81.87" y="134.126" transform="matrix(0.1454 -0.9894 0.9894 0.1454 -103.2203 275.1159)" fill="#ED6A9E" width="51.537" height="126.361"/>
		</g>
	</g>
	<g>
		
			<image overflow="visible" opacity="0.45" width="547" height="356" xlink:href="109BBF43214967EF.png"  transform="matrix(0.24 0 0 0.24 150.3823 152.3057)">
		</image>
		<g>
			<polygon fill="#ED6A9E" points="264.878,157.306 275.558,207.725 167.067,230.709 156.382,180.292 			"/>
		</g>
	</g>
	<polygon fill="#D66190" points="275.558,207.725 286.349,184.147 266.978,136.389 261.656,157.314 	"/>
	<g>
		
			<image overflow="visible" opacity="0.45" width="619" height="447" xlink:href="109BBF43214967EA.png"  transform="matrix(0.24 0 0 0.24 143.8799 131.3887)">
		</image>
		<g>
			
				<rect x="192.347" y="120.836" transform="matrix(-0.3759 -0.9267 0.9267 -0.3759 129.5743 455.3052)" fill="#ED6A9E" width="51.537" height="126.361"/>
		</g>
	</g>
	<g>
		
			<image overflow="visible" opacity="0.45" width="292" height="337" xlink:href="109BBF43214967F5.png"  transform="matrix(0.24 0 0 0.24 126.0039 162.5171)">
		</image>
		<g>
			
				<rect x="135.193" y="170.038" transform="matrix(-0.9945 0.1046 -0.1046 -0.9945 342.1577 385.7947)" fill="#ED6A9E" width="51.537" height="63.665"/>
		</g>
	</g>
</g>
<path fill="none" stroke="#000000" stroke-miterlimit="10" d="M180.931,272.743C174.022,291.292,141.5,247.75,138,242.5
	c-2.327-3.491-0.933-8.66,0.375-9.022"/>
<path fill="none" stroke="#000000" stroke-miterlimit="10" d="M187.876,249.688c-0.959-5.438,12.743-22.236,1.742-21.7"/>
</svg>
