<?xml version="1.0" encoding="UTF-8" standalone="no"?>
<svg width="95px" height="95px" viewBox="0 0 95 95" version="1.1" xmlns="http://www.w3.org/2000/svg" xmlns:xlink="http://www.w3.org/1999/xlink" xmlns:sketch="http://www.bohemiancoding.com/sketch/ns">
    <title>Slice 1</title>
    <description>Created with Sketch (http://www.bohemiancoding.com/sketch)</description>
    <defs>
        <radialGradient cx="0%" cy="33.2730263%" fx="0%" fy="33.2730263%" r="106.439233%" id="radialGradient-1">
            <stop stop-color="#FFFFFF" offset="0%"></stop>
            <stop stop-color="#EAEAEA" offset="100%"></stop>
        </radialGradient>
        <filter x="-50%" y="-50%" width="200%" height="200%" filterUnits="objectBoundingBox" id="filter-2">
            <feOffset dx="0" dy="2" in="SourceAlpha" result="shadowOffsetInner1"></feOffset>
            <feGaussianBlur stdDeviation="1.5" in="shadowOffsetInner1" result="shadowBlurInner1"></feGaussianBlur>
            <feComposite in="shadowBlurInner1" in2="SourceAlpha" operator="arithmetic" k2="-1" k3="1" result="shadowInnerInner1"></feComposite>
            <feColorMatrix values="0 0 0 0 0   0 0 0 0 0   0 0 0 0 0  0 0 0 0.7 0" in="shadowInnerInner1" type="matrix" result="shadowMatrixInner1"></feColorMatrix>
            <feMerge>
                <feMergeNode in="SourceGraphic"></feMergeNode>
                <feMergeNode in="shadowMatrixInner1"></feMergeNode>
            </feMerge>
        </filter>
    </defs>
    <g id="Page-1" stroke="none" stroke-width="1" fill="none" fill-rule="evenodd" sketch:type="MSPage">
        <path d="M47.5,95 C73.7335269,95 95,73.7335269 95,47.5 C95,21.2664731 73.7335269,0 47.5,0 C21.2664731,0 0,21.2664731 0,47.5 C0,73.7335269 21.2664731,95 47.5,95 Z" id="Oval-1" fill="url(#radialGradient-1)" sketch:type="MSShapeGroup"></path>
        <path d="M44.8467609,17.1580546 C49.1176425,16.7288223 53.4800237,17.1728558 57.5652147,18.5022649 C63.6674352,20.4640853 69.1049375,24.3984905 72.9102473,29.5519693 C76.4518226,34.2896714 78.5603517,40.0742159 78.9317328,45.9771693 C79.331371,51.9272171 77.9696407,57.9916372 75.0241587,63.181446 C72.7285935,67.2988468 69.4453701,70.845732 65.5795092,73.5341525 C61.9222136,76.0315041 57.7428317,77.7834178 53.3710314,78.5221279 C48.6561074,79.3765559 43.7433826,79.0724603 39.1522522,77.7121033 C34.1197704,76.2171908 29.4815446,73.4117069 25.8202123,69.6481873 C21.9772263,65.7245465 19.1972511,60.7607911 17.9001087,55.42028 C16.6339148,50.309859 16.7065763,44.8778502 18.0992551,39.801068 C19.0452002,36.329534 20.6114592,33.0302311 22.6863487,30.0928828 C24.9334729,26.9483188 27.75247,24.2101127 30.9764877,22.0774067 C35.1195389,19.3607295 39.9138523,17.6397636 44.8467609,17.1580546 L44.8467609,17.1580546 Z M43,24.5748077 C46.1488511,28.7740211 48.8714619,33.2982467 51.2450882,38 C55.6913087,36.0226143 59.8751249,33.2286012 63,29.3871745 C60.5291375,27.3469713 57.6546787,25.8229641 54.6043956,24.9257664 C50.8454878,23.8209977 46.8161838,23.7062875 43,24.5748077 L43,24.5748077 Z M28.3512321,34.4329502 C26.8316002,36.7424904 25.5878868,39.2778161 25,41.9790805 C32.4137518,42.1463793 39.8677129,41.3153257 47,39.3022989 C45.8963257,37.1532567 44.6318145,35.0871839 43.3354131,33.0455939 C41.7395223,30.6027586 40.0382555,28.2197701 38.1303964,26 C34.1815718,27.8878927 30.7831978,30.8475862 28.3512321,34.4329502 L28.3512321,34.4329502 Z M54,42.6801248 C54.56702,43.9416813 55.1133459,45.2114297 55.6527737,46.485274 C56.4074209,46.4006241 57.1537903,46.2490735 57.9111966,46.1753462 C62.9412576,45.5500293 68.0568545,45.9514336 73,47 C72.7737438,41.9332943 70.8795382,36.9812756 67.7133314,33 C63.9732065,37.2229374 59.1749201,40.4314414 54,42.6801248 L54,42.6801248 Z M24.0055353,48.1159892 C23.8776628,53.8716896 25.9707341,59.6354624 29.719418,64 C31.9713204,60.566492 34.7764398,57.5070103 37.934218,54.8861351 C41.5038804,51.9477411 45.6132995,49.6618751 50,48.1980598 C49.5383129,47.1297975 49.0995082,46.0507718 48.5987864,45 C40.6639599,47.4728792 32.2916748,48.3097295 24.0055353,48.1159892 L24.0055353,48.1159892 Z M57,51.3486362 C58.9050709,56.7897539 60.4485955,62.3549093 61.6055437,68 C66.9898025,64.3408897 70.8291462,58.5262808 72,52.1576372 C67.0954853,51.0537022 61.9962918,50.644378 57,51.3486362 L57,51.3486362 Z M34,68.0489893 C37.5471764,70.7788254 41.825368,72.5080008 46.2357356,72.8931924 C49.8759749,73.256054 53.5769073,72.6810579 57,71.3705691 C55.8535742,65.1349311 54.2634141,58.9858217 52.2200786,53 C44.6563654,55.5344491 38.1810825,61.0960018 34,68.0489893 L34,68.0489893 Z" id="Shape" class="svg-icon svg-icon--dribbble" filter="url(#filter-2)" sketch:type="MSShapeGroup"></path>
    </g>
</svg>