<?xml version="1.0" encoding="UTF-8" standalone="no"?>
<svg width="95px" height="95px" viewBox="0 0 95 95" version="1.1" xmlns="http://www.w3.org/2000/svg" xmlns:xlink="http://www.w3.org/1999/xlink" xmlns:sketch="http://www.bohemiancoding.com/sketch/ns">
    <title>Slice 1</title>
    <description>Created with Sketch (http://www.bohemiancoding.com/sketch)</description>
    <defs>
        <radialGradient cx="0%" cy="33.2730263%" fx="0%" fy="33.2730263%" r="106.439233%" id="radialGradient-1">
            <stop stop-color="#FFFFFF" offset="0%"></stop>
            <stop stop-color="#EAEAEA" offset="100%"></stop>
        </radialGradient>
        <filter x="-50%" y="-50%" width="200%" height="200%" filterUnits="objectBoundingBox" id="filter-2">
            <feOffset dx="0" dy="1" in="SourceAlpha" result="shadowOffsetInner1"></feOffset>
            <feGaussianBlur stdDeviation="1.5" in="shadowOffsetInner1" result="shadowBlurInner1"></feGaussianBlur>
            <feComposite in="shadowBlurInner1" in2="SourceAlpha" operator="arithmetic" k2="-1" k3="1" result="shadowInnerInner1"></feComposite>
            <feColorMatrix values="0 0 0 0 0   0 0 0 0 0   0 0 0 0 0  0 0 0 0.7 0" in="shadowInnerInner1" type="matrix" result="shadowMatrixInner1"></feColorMatrix>
            <feMerge>
                <feMergeNode in="SourceGraphic"></feMergeNode>
                <feMergeNode in="shadowMatrixInner1"></feMergeNode>
            </feMerge>
        </filter>
    </defs>
    <g id="Page-1" stroke="none" stroke-width="1" fill="none" fill-rule="evenodd" sketch:type="MSPage">
        <path d="M47.5,95 C73.7335269,95 95,73.7335269 95,47.5 C95,21.2664731 73.7335269,0 47.5,0 C21.2664731,0 0,21.2664731 0,47.5 C0,73.7335269 21.2664731,95 47.5,95 Z" id="Oval-1" fill="url(#radialGradient-1)" sketch:type="MSShapeGroup"></path>
        <path d="M38.2941732,18.5366507 C44.4759343,16.5113904 51.2923641,16.4878066 57.4888507,18.4673732 C62.3674059,20.0150612 66.8454277,22.8023736 70.3986887,26.4917669 C74.381934,30.607143 77.1900852,35.8574902 78.353399,41.4719126 C79.6654402,47.7216241 78.9718696,54.3825784 76.3536773,60.2107292 C72.8799339,68.0715102 65.9560081,74.3079558 57.7833606,76.9419733 C57.1928684,77.0731583 56.4845722,77.0009328 56.0604781,76.5277825 C55.7365173,76.1769732 55.6628898,75.6831871 55.6805604,75.2247766 C55.6997036,73.2098343 55.7026487,71.1963659 55.7129565,69.1828975 C55.6908683,67.8047182 55.8101448,66.4103251 55.5421408,65.0483596 C55.2873898,63.6539665 54.6851172,62.2787351 53.614574,61.3221166 C56.7967527,60.9683593 60.0687568,60.237261 62.7046197,58.3254978 C64.7676609,56.8559312 66.2166493,54.6331565 66.9440885,52.2231852 C67.6140984,50.0431561 67.8158376,47.740786 67.7495729,45.4678956 C67.6406042,42.6702653 66.4890708,39.9463345 64.5835923,37.9004384 C65.48921,35.5243688 65.3404825,32.8476056 64.5305805,30.4671141 C64.4348648,30.2268539 64.3877433,29.9541661 64.2257629,29.7492816 C63.2700785,29.5915649 62.3011412,29.8067672 61.3852157,30.0706112 C59.3663508,30.6941083 57.5138841,31.7539061 55.7630232,32.918357 C50.704817,31.5416517 45.2873089,31.5534436 40.2291027,32.9154091 C38.6092987,31.8246575 36.8923064,30.8518251 35.0442573,30.2091661 C33.9796043,29.8583568 32.8486866,29.576825 31.7236591,29.7522296 C30.7076002,32.3213917 30.4145629,35.2796867 31.4173689,37.8989644 C29.4765492,39.9831842 28.317653,42.7675486 28.2410805,45.6182425 C28.1821785,48.5839074 28.5503158,51.6439077 29.8976982,54.3221449 C30.8636904,56.2589659 32.4083944,57.8891972 34.2755867,58.9770008 C36.7214908,60.4200356 39.5532027,61.0273188 42.3466283,61.3442264 C41.181842,62.3996022 40.5957674,63.9413942 40.3763576,65.4699204 C38.8522693,66.1332152 37.1308594,66.4825505 35.483077,66.1332152 C34.1975416,65.8678973 33.0445356,65.1191111 32.2051827,64.1197468 C31.5940748,63.4372901 31.2259375,62.5794288 30.610412,61.902868 C29.591408,60.7280992 28.1556726,59.8245442 26.5726823,59.7464228 C26.1294451,59.7567407 25.6243607,59.7817985 25.2768391,60.0942841 C25.1207489,60.2785327 25.2267725,60.5217408 25.3504666,60.6883015 C25.8599686,61.3781281 26.6949039,61.6891397 27.311902,62.2580993 C28.1865962,63.0466832 28.8595511,64.0357295 29.3837786,65.0852093 C29.7298276,65.7588221 29.937457,66.5031863 30.3865845,67.1222615 C31.3349061,68.5225507 32.8707748,69.4541114 34.5008867,69.8373485 C36.3990025,70.2972329 38.3839987,70.1247762 40.2776968,69.7297473 C40.2983125,71.6120307 40.3056753,73.4943141 40.3218733,75.3765975 C40.342489,75.8895455 40.1407498,76.4349212 39.7034027,76.728245 C39.2100987,77.0554704 38.559232,77.0598924 38.0099712,76.8815398 C34.0738475,75.5505281 30.4072002,73.4265106 27.3030667,70.6598341 C23.7336077,67.4922327 20.9151487,63.4815098 19.15398,59.0433302 C16.9407387,53.5026073 16.4238739,47.3074333 17.6460897,41.4719126 C18.6915995,36.4411897 21.0506232,31.6978945 24.4006724,27.8095127 C28.0732099,23.5275759 32.9326219,20.2803791 38.2941732,18.5366507 L38.2941732,18.5366507 Z" id="Shape"  class="svg-icon svg-icon--github" filter="url(#filter-2)" sketch:type="MSShapeGroup"></path>
    </g>
</svg>