<?xml version="1.0" encoding="UTF-8" standalone="no"?>
<svg width="99px" height="99px" viewBox="0 0 99 99" version="1.1" xmlns="http://www.w3.org/2000/svg" xmlns:xlink="http://www.w3.org/1999/xlink" xmlns:sketch="http://www.bohemiancoding.com/sketch/ns">
    <title>Slice 1</title>
    <description>Created with Sketch (http://www.bohemiancoding.com/sketch)</description>
    <defs>
        <radialGradient cx="0%" cy="33.2730263%" fx="0%" fy="33.2730263%" r="106.439233%" id="radialGradient-1">
            <stop stop-color="#FFFFFF" offset="0%"></stop>
            <stop stop-color="#EAEAEA" offset="100%"></stop>
        </radialGradient>
        <filter x="-50%" y="-50%" width="200%" height="200%" filterUnits="objectBoundingBox" id="filter-2">
            <feOffset dx="2" dy="2" in="SourceAlpha" result="shadowOffsetOuter1"></feOffset>
            <feGaussianBlur stdDeviation="1" in="shadowOffsetOuter1" result="shadowBlurOuter1"></feGaussianBlur>
            <feColorMatrix values="0 0 0 0 0   0 0 0 0 0   0 0 0 0 0  0 0 0 0.7 0" in="shadowBlurOuter1" type="matrix" result="shadowMatrixOuter1"></feColorMatrix>
            <feMerge>
                <feMergeNode in="shadowMatrixOuter1"></feMergeNode>
                <feMergeNode in="SourceGraphic"></feMergeNode>
            </feMerge>
        </filter>
        <filter x="-50%" y="-50%" width="200%" height="200%" filterUnits="objectBoundingBox" id="filter-3">
            <feOffset dx="0" dy="2" in="SourceAlpha" result="shadowOffsetInner1"></feOffset>
            <feGaussianBlur stdDeviation="1.5" in="shadowOffsetInner1" result="shadowBlurInner1"></feGaussianBlur>
            <feComposite in="shadowBlurInner1" in2="SourceAlpha" operator="arithmetic" k2="-1" k3="1" result="shadowInnerInner1"></feComposite>
            <feColorMatrix values="0 0 0 0 0   0 0 0 0 0   0 0 0 0 0  0 0 0 0.7 0" in="shadowInnerInner1" type="matrix" result="shadowMatrixInner1"></feColorMatrix>
            <feMerge>
                <feMergeNode in="SourceGraphic"></feMergeNode>
                <feMergeNode in="shadowMatrixInner1"></feMergeNode>
            </feMerge>
        </filter>
    </defs>
    <g id="Page-1" stroke="none" stroke-width="1" fill="none" fill-rule="evenodd" sketch:type="MSPage">
        <circle id="Oval-1" fill="url(#radialGradient-1)" filter="url(#filter-2)" sketch:type="MSShapeGroup" cx="47.5" cy="47.5" r="47.5"></circle>
        <path d="M69.8725406,35.6414587 C72.0753066,34.3293485 73.7669914,32.251258 74.5633804,29.7754323 C72.502127,30.9905661 70.2189042,31.8729937 67.788843,32.3484233 C65.842854,30.2877243 63.0700431,29 60.0018435,29 C54.1096679,29 49.3330456,33.7473017 49.3330456,39.6027419 C49.3330456,40.4337513 49.4273873,41.2430214 49.6092235,42.0190208 C40.7428097,41.5768618 32.8818204,37.3556518 27.6199847,30.9406602 C26.7016742,32.5066478 26.1755667,34.3280253 26.1755667,36.271143 C26.1755667,39.949626 28.0589782,43.1950238 30.921566,45.0965532 C29.1728197,45.0415433 27.5277352,44.5646014 26.0894037,43.7702653 C26.0886429,43.8145001 26.0884527,43.8589239 26.0884527,43.9035368 C26.0884527,49.0408231 29.7658794,53.3263059 34.6463537,54.3004168 C33.751058,54.542574 32.8085914,54.6722538 31.835692,54.6722538 C31.1482905,54.6722538 30.4799096,54.6057125 29.8284569,54.4820819 C31.1861414,58.6944072 35.1260512,61.7600302 39.7944467,61.8456643 C36.1432684,64.6893572 31.5431565,66.3844575 26.5449451,66.3844575 C25.6838863,66.3844575 24.8346203,66.3341735 24,66.2364411 C28.7212726,69.2447857 34.3290915,71 40.3536499,71 C59.9769267,71 70.7075413,54.8435219 70.7075413,40.8322426 C70.7075413,40.3725031 70.69708,39.9152211 70.676728,39.4605857 C72.7609962,37.9656762 74.5696572,36.0981735 76,33.9718784 C74.0867262,34.8151752 72.0307986,35.3853127 69.8725406,35.6414587 Z" id="Shape" class="svg-icon svg-icon--twitter" filter="url(#filter-3)" sketch:type="MSShapeGroup"></path>
    </g>
</svg>